<svg xmlns="http://www.w3.org/2000/svg" viewBox="0 0 566.93 566.93"><defs><style>.cls-1,.cls-10,.cls-11,.cls-12,.cls-13,.cls-2,.cls-21,.cls-22,.cls-23,.cls-3,.cls-4,.cls-5,.cls-6,.cls-7,.cls-8,.cls-9{fill:none;stroke-width:3px;}.cls-1,.cls-2{stroke:#e52513;}.cls-1,.cls-10,.cls-11,.cls-12,.cls-13,.cls-18,.cls-2,.cls-21,.cls-22,.cls-23,.cls-3,.cls-4,.cls-5,.cls-6,.cls-7,.cls-8,.cls-9{stroke-miterlimit:10;}.cls-2{stroke-dasharray:5.96 5.96;}.cls-18,.cls-3,.cls-4,.cls-5{stroke:#1d1d1b;}.cls-4{stroke-dasharray:5.72 5.72;}.cls-5{stroke-dasharray:6.3 6.3;}.cls-6,.cls-7,.cls-8,.cls-9{stroke:#662483;}.cls-7{stroke-dasharray:6 6;}.cls-8{stroke-dasharray:5.94 5.94;}.cls-9{stroke-dasharray:5.61 5.61;}.cls-10,.cls-11,.cls-12,.cls-13{stroke:#706f6f;}.cls-11{stroke-dasharray:6.22 6.22;}.cls-12{stroke-dasharray:6.07 6.07;}.cls-13{stroke-dasharray:6.13 6.13;}.cls-14,.cls-15,.cls-16,.cls-18,.cls-24,.cls-26,.cls-28,.cls-29,.cls-33,.cls-34{fill:#1d1d1b;}.cls-15{font-size:21px;}.cls-15,.cls-33{font-family:MyriadPro-Bold, Myriad Pro;}.cls-15,.cls-33,.cls-34,.cls-36{font-weight:700;}.cls-16{font-size:12px;letter-spacing:0.1em;}.cls-16,.cls-24,.cls-26,.cls-28,.cls-29{font-family:MyriadPro-Regular, Myriad Pro;}.cls-17{letter-spacing:0.08em;}.cls-18{stroke-width:2.5px;}.cls-19{letter-spacing:0.09em;}.cls-20{letter-spacing:0.1em;}.cls-21{stroke:#009640;}.cls-22{stroke:#1d71b8;}.cls-23{stroke:#f9b233;}.cls-24,.cls-26,.cls-28,.cls-29{font-size:15px;}.cls-24{letter-spacing:0.12em;}.cls-25{letter-spacing:0.1em;}.cls-26{letter-spacing:0.1em;}.cls-27,.cls-28{letter-spacing:0.1em;}.cls-30{letter-spacing:-0.01em;}.cls-31{letter-spacing:0em;}.cls-32{letter-spacing:-0.01em;}.cls-33,.cls-34{font-size:16px;}.cls-34{font-family:MyriadPro-BoldIt, Myriad Pro;font-style:italic;letter-spacing:0.15em;}.cls-35{fill:#10587e;}.cls-36{font-size:11px;fill:#fff;font-family:PTMono-Bold, PT Mono;letter-spacing:0.15em;}</style></defs><title>NodeMCU_v2</title><g id="_" data-name="+"><polyline class="cls-1" points="397.37 146.59 265.39 146.59 265.39 42.29 36.97 42.29 36.97 524.67 83.89 524.67"/><polyline class="cls-1" points="421.12 415.59 421.12 444.35 278.88 444.35 278.88 524.67 247.51 524.67"/><line class="cls-1" x1="457.59" y1="507.29" x2="454.59" y2="507.29"/><line class="cls-2" x1="448.64" y1="507.29" x2="284.86" y2="507.29"/><line class="cls-1" x1="281.88" y1="507.29" x2="278.88" y2="507.29"/><line class="cls-3" x1="457.59" y1="521.85" x2="454.59" y2="521.85"/><line class="cls-4" x1="448.87" y1="521.85" x2="360.25" y2="521.85"/><polyline class="cls-3" points="357.39 521.85 354.39 521.85 354.39 518.85"/><line class="cls-5" x1="354.39" y1="512.55" x2="354.39" y2="503.1"/><line class="cls-3" x1="354.39" y1="499.95" x2="354.39" y2="496.95"/><line class="cls-6" x1="457.59" y1="536.41" x2="454.59" y2="536.41"/><line class="cls-7" x1="448.59" y1="536.41" x2="343.64" y2="536.41"/><polyline class="cls-6" points="340.64 536.41 337.64 536.41 337.64 533.41"/><line class="cls-8" x1="337.64" y1="527.47" x2="337.64" y2="245.15"/><polyline class="cls-6" points="337.64 242.18 337.64 239.18 334.64 239.18"/><line class="cls-9" x1="329.03" y1="239.18" x2="253.31" y2="239.18"/><line class="cls-6" x1="250.51" y1="239.18" x2="247.51" y2="239.18"/><line class="cls-10" x1="457.59" y1="550.97" x2="454.59" y2="550.97"/><line class="cls-11" x1="448.37" y1="550.97" x2="327.07" y2="550.97"/><polyline class="cls-10" points="323.96 550.98 320.96 550.98 320.96 547.98"/><line class="cls-12" x1="320.96" y1="541.9" x2="320.96" y2="217.11"/><polyline class="cls-10" points="320.96 214.07 320.96 211.07 317.96 211.07"/><line class="cls-13" x1="311.83" y1="211.07" x2="253.57" y2="211.07"/><line class="cls-10" x1="250.51" y1="211.07" x2="247.51" y2="211.07"/><path class="cls-14" d="M515.79,550.88c0,4-1,6.94-3,8.89s-4.84,3-8.52,3h-11v-8.09H499a18.39,18.39,0,0,0,3.59-.29,4.77,4.77,0,0,0,2.35-1.1,4.42,4.42,0,0,0,1.25-2.24,15.2,15.2,0,0,0,.37-3.72v-8.37c0-3.18.9-5.62,2.68-7.31a10.78,10.78,0,0,1,6.87-2.83V528a11.66,11.66,0,0,1-6.91-2.68q-2.64-2.31-2.64-7.16v-8.37a14,14,0,0,0-.4-3.71,4.32,4.32,0,0,0-3.6-3.35,17.45,17.45,0,0,0-3.49-.29h-5.88v-8.09h11q5.73,0,8.63,3.17c1.93,2.1,2.91,5,2.91,8.74v9.4c0,3.23.86,5.57,2.61,7s4.29,2.17,7.67,2.17v7.34c-3.33,0-5.87.69-7.64,2.06s-2.64,3.85-2.64,7.42Z"/><text class="cls-15" transform="translate(529.5 534.82)">I2C</text><text class="cls-16" transform="translate(470.96 510.81)">V<tspan class="cls-17" x="7.88" y="0">C</tspan><tspan x="15.78" y="0">C</tspan></text><line class="cls-18" x1="466.48" y1="507.29" x2="457.59" y2="507.29"/><text class="cls-16" transform="translate(467.69 525.37)">GND</text><line class="cls-18" x1="466.48" y1="521.85" x2="457.59" y2="521.85"/><text class="cls-16" transform="translate(472.79 539.94)">SCL</text><line class="cls-18" x1="466.48" y1="536.41" x2="457.59" y2="536.41"/><text class="cls-16" transform="translate(470.24 554.5)">S<tspan class="cls-19" x="7.1" y="0">D</tspan><tspan class="cls-20" x="16.12" y="0">A</tspan></text><line class="cls-18" x1="466.48" y1="550.97" x2="457.59" y2="550.97"/></g><g id="_-" data-name="-"><polyline class="cls-3" points="455.87 418.05 455.87 495.8 247.51 495.8"/><polyline class="cls-3" points="397.37 94.9 280.65 94.9 280.65 67.15 64.21 67.15 64.21 495.64 83.89 495.64"/></g><g id="TXD"><polyline class="cls-21" points="397.37 42.29 304.52 42.29 304.52 153.64 247.51 153.64"/></g><g id="RXD"><polyline class="cls-22" points="397.37 67.15 324.4 67.15 324.4 182.29 247.51 182.29"/></g><g id="S"><polyline class="cls-23" points="432.62 418.05 432.62 465.73 298.68 465.73 298.68 381.99 247.51 381.99"/></g><g id="Symboler"><path class="cls-14" d="M421.64,21.26V221H396.58a3,3,0,0,1,0-6h19.1V27.26h-19.1a3,3,0,0,1,0-6Z"/><path class="cls-14" d="M421.68,24.26V218a2.32,2.32,0,0,1,0,.46V23.81A2.22,2.22,0,0,1,421.68,24.26Z"/><circle class="cls-14" cx="402.63" cy="42.29" r="5.26"/><circle class="cls-14" cx="402.63" cy="67.15" r="5.26"/><circle class="cls-14" cx="402.63" cy="94.9" r="5.26"/><circle class="cls-14" cx="402.63" cy="121.86" r="5.26"/><circle class="cls-14" cx="402.63" cy="146.59" r="5.26"/><circle class="cls-14" cx="402.63" cy="173.69" r="5.26"/><circle class="cls-14" cx="402.63" cy="198.28" r="5.26"/><polygon class="cls-14" points="424.66 21.26 424.66 27.26 427.14 27.26 427.14 215.04 424.66 215.04 424.66 221.04 433.14 221.04 433.14 21.26 424.66 21.26"/><text class="cls-24" transform="translate(454.92 48.12)">T<tspan class="cls-25" x="9.27" y="0">XD</tspan></text><text class="cls-26" transform="translate(454.92 72.41)">R<tspan class="cls-27" x="9.63" y="0">XD</tspan></text><text class="cls-28" transform="translate(454.92 97.92)">GND</text><text class="cls-28" transform="translate(460.77 146.59)">5V</text><text class="cls-29" transform="translate(452.5 203.54)">squa<tspan class="cls-30" x="29.88" y="0">r</tspan><tspan x="34.63" y="0">ed pin = 1</tspan></text><text class="cls-29" transform="translate(424.66 227.43) rotate(90)"><tspan class="cls-31">B</tspan><tspan x="8.19" y="0">oa</tspan><tspan class="cls-32" x="23.65" y="0">r</tspan><tspan x="28.41" y="0">d</tspan></text><text class="cls-15" transform="translate(450.2 223.92)">SDS011</text><text class="cls-15" transform="translate(482.79 361.93)">DHT22</text><text class="cls-15" transform="translate(402.97 410.67)">1</text><text class="cls-15" transform="translate(463.72 410.67)">4</text><text class="cls-33" transform="translate(409.41 430.49)">+</text><text class="cls-33" transform="translate(434.8 430.49)">S</text><text class="cls-33" transform="translate(460.71 430.49)">-</text><path class="cls-14" d="M459.12,310.31h-41l-5.44,10.13v69.72h7.51v27.89h2.5V390.16h8.81v27.89H434V390.16h9.34v27.89h2.5V390.16h8.81v27.89h2.5V390.16h7.49V320.44Zm-39.73,2h38.54l4.43,8.13H414.9Zm43.25,75.85h-48V322.44h48Z"/><text class="cls-34" transform="translate(421.12 377.66)">###</text><path class="cls-14" d="M421.88,344.53l.91-2.87h-1.31l.24-1.44h1.53l.59-1.84h-1.36l.24-1.44h1.57l.9-2.81h1.39l-.89,2.81h1.4l.9-2.81h1.41l-.9,2.81h1.3l-.24,1.44h-1.51l-.57,1.84h1.33l-.24,1.44H427l-.9,2.87h-1.42l.91-2.87H424.2l-.9,2.87Zm4.17-4.31.6-1.84h-1.4l-.57,1.84Z"/><path class="cls-14" d="M432.93,344.53l.91-2.87h-1.31l.24-1.44h1.54l.59-1.84h-1.36l.24-1.44h1.57l.89-2.81h1.4l-.9,2.81h1.41l.9-2.81h1.4l-.89,2.81h1.29l-.24,1.44h-1.5l-.58,1.84h1.33l-.24,1.44h-1.57l-.89,2.87h-1.43l.91-2.87h-1.39l-.89,2.87Zm4.18-4.31.59-1.84h-1.39l-.58,1.84Z"/><path class="cls-14" d="M444,344.53l.91-2.87h-1.31l.24-1.44h1.53l.6-1.84h-1.37l.25-1.44h1.56l.9-2.81h1.39l-.89,2.81h1.4l.9-2.81h1.41l-.9,2.81h1.3l-.24,1.44h-1.5l-.58,1.84h1.33l-.24,1.44h-1.57l-.9,2.87h-1.42l.91-2.87h-1.39l-.9,2.87Zm4.17-4.31.6-1.84h-1.4l-.57,1.84Z"/><path class="cls-14" d="M421.88,361l.91-2.86h-1.31l.24-1.45h1.53l.59-1.84h-1.36l.24-1.44h1.57l.9-2.81h1.39l-.89,2.81h1.4l.9-2.81h1.41l-.9,2.81h1.3l-.24,1.44h-1.51l-.57,1.84h1.33l-.24,1.45H427l-.9,2.86h-1.42l.91-2.86H424.2l-.9,2.86Zm4.17-4.31.6-1.84h-1.4l-.57,1.84Z"/><path class="cls-14" d="M432.93,361l.91-2.86h-1.31l.24-1.45h1.54l.59-1.84h-1.36l.24-1.44h1.57l.89-2.81h1.4l-.9,2.81h1.41l.9-2.81h1.4l-.89,2.81h1.29l-.24,1.44h-1.5l-.58,1.84h1.33l-.24,1.45h-1.57l-.89,2.86h-1.43l.91-2.86h-1.39l-.89,2.86Zm4.18-4.31.59-1.84h-1.39l-.58,1.84Z"/><path class="cls-14" d="M444,361l.91-2.86h-1.31l.24-1.45h1.53l.6-1.84h-1.37l.25-1.44h1.56l.9-2.81h1.39l-.89,2.81h1.4l.9-2.81h1.41l-.9,2.81h1.3l-.24,1.44h-1.5l-.58,1.84h1.33l-.24,1.45h-1.57l-.9,2.86h-1.42l.91-2.86h-1.39l-.9,2.86Zm4.17-4.31.6-1.84h-1.4l-.57,1.84Z"/><polygon class="cls-35" points="229.53 126.5 229.53 152.43 247.51 152.43 247.51 154.93 229.53 154.93 229.53 181.09 247.51 181.09 247.51 183.59 229.53 183.59 229.53 209.81 247.51 209.81 247.51 212.31 229.53 212.31 229.53 238.04 247.51 238.04 247.51 240.54 229.53 240.54 229.53 266.54 247.51 266.54 247.51 269.04 229.53 269.04 229.53 294.72 247.51 294.72 247.51 297.22 229.53 297.22 229.53 323.49 247.51 323.49 247.51 325.99 229.53 325.99 229.53 352.05 247.51 352.05 247.51 354.55 229.53 354.55 229.53 380.87 247.51 380.87 247.51 383.37 229.53 383.37 229.53 409.05 247.51 409.05 247.51 411.55 229.53 411.55 229.53 437.61 247.51 437.61 247.51 440.11 229.53 440.11 229.53 466.11 247.51 466.11 247.51 468.61 229.53 468.61 229.53 494.45 247.51 494.45 247.51 496.95 229.53 496.95 229.53 523.27 247.51 523.27 247.51 525.77 229.53 525.77 229.53 543.75 99.78 543.75 99.78 525.77 81.8 525.77 81.8 523.27 99.78 523.27 99.78 496.95 81.8 496.95 81.8 494.45 99.78 494.45 99.78 468.61 81.8 468.61 81.8 466.11 99.78 466.11 99.78 440.11 81.8 440.11 81.8 437.61 99.78 437.61 99.78 411.55 81.8 411.55 81.8 409.05 99.78 409.05 99.78 383.37 81.8 383.37 81.8 380.87 99.78 380.87 99.78 354.55 81.8 354.55 81.8 352.05 99.78 352.05 99.78 325.99 81.8 325.99 81.8 323.49 99.78 323.49 99.78 297.22 81.8 297.22 81.8 294.72 99.78 294.72 99.78 269.04 81.8 269.04 81.8 266.54 99.78 266.54 99.78 240.54 81.8 240.54 81.8 238.04 99.78 238.04 99.78 212.31 81.8 212.31 81.8 209.81 99.78 209.81 99.78 183.59 81.8 183.59 81.8 181.09 99.78 181.09 99.78 154.93 81.8 154.93 81.8 152.43 99.78 152.43 99.78 126.5 81.8 126.5 81.8 124 99.78 124 99.78 103.86 122.4 81.21 206.92 81.21 229.53 103.86 229.53 124 247.51 124 247.51 126.5 229.53 126.5"/><text class="cls-36" transform="translate(113.92 124.36)">A0</text><text class="cls-36" transform="translate(109.8 153.17)">RSV</text><text class="cls-36" transform="translate(109.8 182.01)">RSV</text><text class="cls-36" transform="translate(109.8 210.33)">SD3</text><text class="cls-36" transform="translate(109.8 239.18)">SD2</text><text class="cls-36" transform="translate(109.8 268.03)">SD1</text><text class="cls-36" transform="translate(109.8 296.08)">CMD</text><text class="cls-36" transform="translate(109.8 325.19)">SD0</text><text class="cls-36" transform="translate(109.8 353.77)">CLK</text><text class="cls-36" transform="translate(109.8 382.36)">GND</text><text class="cls-36" transform="translate(109.8 410.67)">3V3</text><text class="cls-36" transform="translate(113.92 439.78)">EN</text><text class="cls-36" transform="translate(109.8 468.1)">RST</text><text class="cls-36" transform="translate(109.8 496.95)">GND</text><text class="cls-36" transform="translate(109.8 526.06)">Vin</text><text class="cls-36" transform="translate(200.98 124.36)">D0</text><text class="cls-36" transform="translate(200.98 153.17)">D1</text><text class="cls-36" transform="translate(200.98 182.01)">D2</text><text class="cls-36" transform="translate(200.98 210.33)">D3</text><text class="cls-36" transform="translate(200.98 239.18)">D4</text><text class="cls-36" transform="translate(196.86 268.03)">3V3</text><text class="cls-36" transform="translate(196.86 296.08)">GND</text><text class="cls-36" transform="translate(200.98 325.19)">D5</text><text class="cls-36" transform="translate(200.98 353.77)">D6</text><text class="cls-36" transform="translate(200.98 382.36)">D7</text><text class="cls-36" transform="translate(200.98 410.67)">D8</text><text class="cls-36" transform="translate(200.98 439.78)">D9</text><text class="cls-36" transform="translate(196.86 468.1)">D10</text><text class="cls-36" transform="translate(196.86 496.95)">GND</text><text class="cls-36" transform="translate(196.86 526.06)">3V3</text><text class="cls-36" transform="translate(136.6 94.9)">NodeMCU<tspan x="20.63" y="13.2">V2</tspan></text></g></svg>