<svg xmlns="http://www.w3.org/2000/svg" viewBox="0 0 566.93 566.93"><defs><style>.cls-1,.cls-10,.cls-11,.cls-12,.cls-13,.cls-14,.cls-15,.cls-16,.cls-2,.cls-3,.cls-4,.cls-5,.cls-6,.cls-7,.cls-8,.cls-9{fill:none;stroke-width:3px;}.cls-1,.cls-6{stroke:#e52513;}.cls-1,.cls-10,.cls-11,.cls-12,.cls-13,.cls-14,.cls-15,.cls-16,.cls-2,.cls-21,.cls-3,.cls-4,.cls-5,.cls-6,.cls-7,.cls-8,.cls-9{stroke-miterlimit:10;}.cls-2,.cls-21,.cls-7,.cls-8{stroke:#1d1d1b;}.cls-3{stroke:#009640;}.cls-4{stroke:#1d71b8;}.cls-5{stroke:#f9b233;}.cls-6{stroke-dasharray:6 6;}.cls-7{stroke-dasharray:5.72 5.72;}.cls-8{stroke-dasharray:7.51 7.51;}.cls-10,.cls-11,.cls-12,.cls-9{stroke:#662483;}.cls-10{stroke-dasharray:6 6;}.cls-11{stroke-dasharray:5.99 5.99;}.cls-12{stroke-dasharray:6.51 6.51;}.cls-13,.cls-14,.cls-15,.cls-16{stroke:#706f6f;}.cls-14{stroke-dasharray:6.22 6.22;}.cls-15{stroke-dasharray:5.9 5.9;}.cls-16{stroke-dasharray:6.11 6.11;}.cls-17,.cls-18,.cls-19,.cls-21,.cls-24,.cls-26,.cls-28,.cls-29,.cls-33,.cls-34{fill:#1d1d1b;}.cls-18{font-size:21px;}.cls-18,.cls-33{font-family:MyriadPro-Bold, Myriad Pro;}.cls-18,.cls-33,.cls-34,.cls-36{font-weight:700;}.cls-19{font-size:12px;letter-spacing:0.1em;}.cls-19,.cls-24,.cls-26,.cls-28,.cls-29{font-family:MyriadPro-Regular, Myriad Pro;}.cls-20{letter-spacing:0.08em;}.cls-21{stroke-width:2.5px;}.cls-22{letter-spacing:0.09em;}.cls-23{letter-spacing:0.1em;}.cls-24,.cls-26,.cls-28,.cls-29{font-size:15px;}.cls-24{letter-spacing:0.12em;}.cls-25{letter-spacing:0.1em;}.cls-26{letter-spacing:0.1em;}.cls-27,.cls-28{letter-spacing:0.1em;}.cls-30{letter-spacing:-0.01em;}.cls-31{letter-spacing:0em;}.cls-32{letter-spacing:-0.01em;}.cls-33,.cls-34{font-size:16px;}.cls-34{font-family:MyriadPro-BoldIt, Myriad Pro;font-style:italic;letter-spacing:0.15em;}.cls-35{fill:#10587e;}.cls-36{font-size:11px;fill:#fff;font-family:PTMono-Bold, PT Mono;letter-spacing:0.15em;}</style></defs><title>NodeMCU_v3</title><g id="_" data-name="+"><polyline class="cls-1" points="431.87 415.59 431.87 444.35 289.63 444.35 289.63 521.89 259.99 521.89"/><polyline class="cls-1" points="407.77 144.13 275.79 144.13 275.79 39.83 47.37 39.83 47.37 179.69 94.28 179.69"/></g><g id="_-" data-name="-"><polyline class="cls-2" points="466.26 415.59 466.26 493.34 259.99 493.34"/><polyline class="cls-2" points="407.77 92.44 291.05 92.44 291.05 64.69 74.61 64.69 74.61 151.28 94.28 151.28"/></g><g id="TXD"><polyline class="cls-3" points="407.77 39.83 314.92 39.83 314.92 151.18 259.99 151.18"/></g><g id="RXD"><polyline class="cls-4" points="407.77 64.69 334.79 64.69 334.79 179.83 259.99 179.83"/></g><g id="S"><polyline class="cls-5" points="443.01 415.59 443.01 463.27 309.07 463.27 309.07 379.53 259.99 379.53"/></g><g id="SCL"><line class="cls-1" x1="457.59" y1="507.29" x2="454.59" y2="507.29"/><line class="cls-6" x1="448.59" y1="507.29" x2="295.63" y2="507.29"/><line class="cls-1" x1="292.63" y1="507.29" x2="289.63" y2="507.29"/><line class="cls-2" x1="457.59" y1="521.85" x2="454.59" y2="521.85"/><line class="cls-7" x1="448.87" y1="521.85" x2="360.25" y2="521.85"/><polyline class="cls-2" points="357.39 521.85 354.39 521.85 354.39 518.85"/><line class="cls-8" x1="354.39" y1="511.35" x2="354.39" y2="500.09"/><line class="cls-2" x1="354.39" y1="496.34" x2="354.39" y2="493.34"/><line class="cls-9" x1="457.59" y1="536.41" x2="454.59" y2="536.41"/><line class="cls-10" x1="448.59" y1="536.41" x2="343.64" y2="536.41"/><polyline class="cls-9" points="340.64 536.41 337.64 536.41 337.64 533.41"/><line class="cls-11" x1="337.64" y1="527.42" x2="337.64" y2="242.67"/><polyline class="cls-9" points="337.64 239.67 337.64 236.67 334.64 236.67"/><line class="cls-12" x1="328.13" y1="236.67" x2="266.25" y2="236.67"/><line class="cls-9" x1="262.99" y1="236.67" x2="259.99" y2="236.67"/><line class="cls-13" x1="457.59" y1="550.97" x2="454.59" y2="550.97"/><line class="cls-14" x1="448.37" y1="550.97" x2="327.07" y2="550.97"/><polyline class="cls-13" points="323.96 550.98 320.96 550.98 320.96 547.98"/><line class="cls-15" x1="320.96" y1="542.07" x2="320.96" y2="214.54"/><polyline class="cls-13" points="320.96 211.59 320.96 208.59 317.96 208.59"/><line class="cls-16" x1="311.85" y1="208.59" x2="266.04" y2="208.59"/><line class="cls-13" x1="262.99" y1="208.59" x2="259.99" y2="208.59"/><path class="cls-17" d="M515.79,550.88c0,4-1,6.94-3,8.89s-4.84,3-8.52,3h-11v-8.09H499a18.39,18.39,0,0,0,3.59-.29,4.77,4.77,0,0,0,2.35-1.1,4.42,4.42,0,0,0,1.25-2.24,15.2,15.2,0,0,0,.37-3.72v-8.37c0-3.18.9-5.62,2.68-7.31a10.78,10.78,0,0,1,6.87-2.83V528a11.66,11.66,0,0,1-6.91-2.68q-2.64-2.31-2.64-7.16v-8.37a14,14,0,0,0-.4-3.71,4.32,4.32,0,0,0-3.6-3.35,17.45,17.45,0,0,0-3.49-.29h-5.88v-8.09h11q5.73,0,8.63,3.17c1.93,2.1,2.91,5,2.91,8.74v9.4c0,3.23.86,5.57,2.61,7s4.29,2.17,7.67,2.17v7.34c-3.33,0-5.87.69-7.64,2.06s-2.64,3.85-2.64,7.42Z"/><text class="cls-18" transform="translate(529.5 534.82)">I2C</text><text class="cls-19" transform="translate(470.96 510.81)">V<tspan class="cls-20" x="7.88" y="0">C</tspan><tspan x="15.78" y="0">C</tspan></text><line class="cls-21" x1="466.48" y1="507.29" x2="457.59" y2="507.29"/><text class="cls-19" transform="translate(467.69 525.37)">GND</text><line class="cls-21" x1="466.48" y1="521.85" x2="457.59" y2="521.85"/><text class="cls-19" transform="translate(472.79 539.94)">SCL</text><line class="cls-21" x1="466.48" y1="536.41" x2="457.59" y2="536.41"/><text class="cls-19" transform="translate(470.24 554.5)">S<tspan class="cls-22" x="7.1" y="0">D</tspan><tspan class="cls-23" x="16.12" y="0">A</tspan></text><line class="cls-21" x1="466.48" y1="550.97" x2="457.59" y2="550.97"/></g><g id="Symboler"><path class="cls-17" d="M432,18.8V218.58H407a3,3,0,0,1,0-6h19.1V24.8H407a3,3,0,0,1,0-6Z"/><path class="cls-17" d="M432.07,21.8V215.58a2.32,2.32,0,0,1,0,.46V21.35A2.22,2.22,0,0,1,432.07,21.8Z"/><circle class="cls-17" cx="413.03" cy="39.83" r="5.26"/><circle class="cls-17" cx="413.03" cy="64.69" r="5.26"/><circle class="cls-17" cx="413.03" cy="92.44" r="5.26"/><circle class="cls-17" cx="413.03" cy="119.4" r="5.26"/><circle class="cls-17" cx="413.03" cy="144.13" r="5.26"/><circle class="cls-17" cx="413.03" cy="171.22" r="5.26"/><circle class="cls-17" cx="413.03" cy="195.82" r="5.26"/><polygon class="cls-17" points="435.05 18.8 435.05 24.8 437.53 24.8 437.53 212.58 435.05 212.58 435.05 218.58 443.53 218.58 443.53 18.8 435.05 18.8"/><text class="cls-24" transform="translate(465.32 45.66)">T<tspan class="cls-25" x="9.27" y="0">XD</tspan></text><text class="cls-26" transform="translate(465.32 69.95)">R<tspan class="cls-27" x="9.63" y="0">XD</tspan></text><text class="cls-28" transform="translate(465.32 95.46)">GND</text><text class="cls-28" transform="translate(471.16 144.13)">5V</text><text class="cls-29" transform="translate(462.89 201.08)">squa<tspan class="cls-30" x="29.88" y="0">r</tspan><tspan x="34.63" y="0">ed pin = 1</tspan></text><text class="cls-29" transform="translate(435.05 224.97) rotate(90)"><tspan class="cls-31">B</tspan><tspan x="8.19" y="0">oa</tspan><tspan class="cls-32" x="23.65" y="0">r</tspan><tspan x="28.41" y="0">d</tspan></text><text class="cls-18" transform="translate(460.6 221.45)">SDS011</text><text class="cls-18" transform="translate(493.19 359.47)">DHT22</text><text class="cls-18" transform="translate(413.37 408.21)">1</text><text class="cls-18" transform="translate(474.11 408.21)">4</text><text class="cls-33" transform="translate(419.81 428.03)">+</text><text class="cls-33" transform="translate(445.19 428.03)">S</text><text class="cls-33" transform="translate(471.1 428.03)">-</text><path class="cls-17" d="M469.51,307.85h-41L423.07,318V387.7h7.51v27.89h2.5V387.7h8.81v27.89h2.5V387.7h9.34v27.89h2.5V387.7H465v27.89h2.5V387.7H475V318Zm-39.73,2h38.54l4.43,8.13H425.29ZM473,385.7h-48V320h48Z"/><text class="cls-34" transform="translate(431.52 375.19)">###</text><path class="cls-17" d="M432.27,342.07l.91-2.87h-1.31l.24-1.44h1.53l.6-1.84h-1.36l.24-1.44h1.57l.89-2.82H437l-.89,2.82h1.41l.89-2.82h1.41l-.9,2.82h1.3l-.24,1.44h-1.5l-.58,1.84h1.33L439,339.2h-1.57l-.9,2.87h-1.42l.91-2.87h-1.39l-.9,2.87Zm4.18-4.31.59-1.84h-1.39l-.58,1.84Z"/><path class="cls-17" d="M443.32,342.07l.92-2.87h-1.32l.24-1.44h1.54l.59-1.84h-1.36l.24-1.44h1.57l.9-2.82H448l-.9,2.82h1.41l.9-2.82h1.41l-.9,2.82h1.3l-.24,1.44H449.5l-.57,1.84h1.32L450,339.2h-1.56l-.9,2.87h-1.43l.92-2.87h-1.4l-.89,2.87Zm4.18-4.31.59-1.84H446.7l-.58,1.84Z"/><path class="cls-17" d="M454.38,342.07l.91-2.87H454l.24-1.44h1.54l.59-1.84H455l.24-1.44h1.57l.89-2.82h1.4l-.9,2.82h1.41l.89-2.82h1.41l-.89,2.82h1.29l-.24,1.44h-1.5l-.58,1.84h1.33l-.24,1.44H459.5l-.89,2.87h-1.43l.91-2.87H456.7l-.9,2.87Zm4.18-4.31.59-1.84h-1.39l-.58,1.84Z"/><path class="cls-17" d="M432.27,358.58l.91-2.87h-1.31l.24-1.44h1.53l.6-1.84h-1.36l.24-1.44h1.57l.89-2.82H437l-.89,2.82h1.41l.89-2.82h1.41l-.9,2.82h1.3l-.24,1.44h-1.5l-.58,1.84h1.33l-.24,1.44h-1.57l-.9,2.87h-1.42l.91-2.87h-1.39l-.9,2.87Zm4.18-4.31.59-1.84h-1.39l-.58,1.84Z"/><path class="cls-17" d="M443.32,358.58l.92-2.87h-1.32l.24-1.44h1.54l.59-1.84h-1.36l.24-1.44h1.57l.9-2.82H448l-.9,2.82h1.41l.9-2.82h1.41L450,351h1.3l-.24,1.44H449.5l-.57,1.84h1.32l-.24,1.44h-1.56l-.9,2.87h-1.43l.92-2.87h-1.4l-.89,2.87Zm4.18-4.31.59-1.84H446.7l-.58,1.84Z"/><path class="cls-17" d="M454.38,358.58l.91-2.87H454l.24-1.44h1.54l.59-1.84H455l.24-1.44h1.57l.89-2.82h1.4l-.9,2.82h1.41l.89-2.82h1.41L461,351h1.29l-.24,1.44h-1.5l-.58,1.84h1.33l-.24,1.44H459.5l-.89,2.87h-1.43l.91-2.87H456.7l-.9,2.87Zm4.18-4.31.59-1.84h-1.39l-.58,1.84Z"/><polygon class="cls-35" points="242.01 123.99 242.01 149.92 259.99 149.92 259.99 152.42 242.01 152.42 242.01 178.58 259.99 178.58 259.99 181.08 242.01 181.08 242.01 207.3 259.99 207.3 259.99 209.8 242.01 209.8 242.01 235.53 259.99 235.53 259.99 238.03 242.01 238.03 242.01 264.03 259.99 264.03 259.99 266.53 242.01 266.53 242.01 292.21 259.99 292.21 259.99 294.71 242.01 294.71 242.01 320.98 259.99 320.98 259.99 323.48 242.01 323.48 242.01 349.54 259.99 349.54 259.99 352.04 242.01 352.04 242.01 378.36 259.99 378.36 259.99 380.86 242.01 380.86 242.01 406.54 259.99 406.54 259.99 409.04 242.01 409.04 242.01 435.1 259.99 435.1 259.99 437.6 242.01 437.6 242.01 463.6 259.99 463.6 259.99 466.1 242.01 466.1 242.01 491.94 259.99 491.94 259.99 494.44 242.01 494.44 242.01 520.76 259.99 520.76 259.99 523.26 242.01 523.26 242.01 541.24 112.26 541.24 112.26 523.26 94.28 523.26 94.28 520.76 112.26 520.76 112.26 494.44 94.28 494.44 94.28 491.94 112.26 491.94 112.26 466.1 94.28 466.1 94.28 463.6 112.26 463.6 112.26 437.6 94.28 437.6 94.28 435.1 112.26 435.1 112.26 409.04 94.28 409.04 94.28 406.54 112.26 406.54 112.26 380.86 94.28 380.86 94.28 378.36 112.26 378.36 112.26 352.04 94.28 352.04 94.28 349.54 112.26 349.54 112.26 323.48 94.28 323.48 94.28 320.98 112.26 320.98 112.26 294.71 94.28 294.71 94.28 292.21 112.26 292.21 112.26 266.53 94.28 266.53 94.28 264.03 112.26 264.03 112.26 238.03 94.28 238.03 94.28 235.53 112.26 235.53 112.26 209.8 94.28 209.8 94.28 207.3 112.26 207.3 112.26 181.08 94.28 181.08 94.28 178.58 112.26 178.58 112.26 152.42 94.28 152.42 94.28 149.92 112.26 149.92 112.26 123.99 94.28 123.99 94.28 121.49 112.26 121.49 112.26 101.35 134.88 78.7 219.4 78.7 242.01 101.35 242.01 121.49 259.99 121.49 259.99 123.99 242.01 123.99"/><text class="cls-36" transform="translate(126.41 121.85)">A0</text><text class="cls-36" transform="translate(122.28 150.66)">GND</text><text class="cls-36" transform="translate(126.41 179.51)">VU</text><text class="cls-36" transform="translate(122.28 207.82)">SD3</text><text class="cls-36" transform="translate(122.28 236.67)">SD2</text><text class="cls-36" transform="translate(122.28 265.52)">SD1</text><text class="cls-36" transform="translate(122.28 293.57)">CMD</text><text class="cls-36" transform="translate(122.28 322.68)">SD0</text><text class="cls-36" transform="translate(122.28 351.27)">CLK</text><text class="cls-36" transform="translate(122.28 379.85)">GND</text><text class="cls-36" transform="translate(122.28 408.16)">3V3</text><text class="cls-36" transform="translate(126.41 437.27)">EN</text><text class="cls-36" transform="translate(122.28 465.59)">RST</text><text class="cls-36" transform="translate(122.28 494.44)">GND</text><text class="cls-36" transform="translate(122.28 523.55)">Vin</text><text class="cls-36" transform="translate(213.47 121.85)">D0</text><text class="cls-36" transform="translate(213.47 150.66)">D1</text><text class="cls-36" transform="translate(213.47 179.51)">D2</text><text class="cls-36" transform="translate(213.47 207.82)">D3</text><text class="cls-36" transform="translate(213.47 236.67)">D4</text><text class="cls-36" transform="translate(209.34 265.52)">3V3</text><text class="cls-36" transform="translate(209.34 293.57)">GND</text><text class="cls-36" transform="translate(213.47 322.68)">D5</text><text class="cls-36" transform="translate(213.47 351.27)">D6</text><text class="cls-36" transform="translate(213.47 379.85)">D7</text><text class="cls-36" transform="translate(213.47 408.16)">D8</text><text class="cls-36" transform="translate(213.47 437.27)">D9</text><text class="cls-36" transform="translate(209.34 465.59)">D10</text><text class="cls-36" transform="translate(209.34 494.44)">GND</text><text class="cls-36" transform="translate(209.34 523.55)">3V3</text><text class="cls-36" transform="translate(149.09 92.44)">NodeMCU<tspan x="20.63" y="13.2">V3</tspan></text></g></svg>