<svg xmlns="http://www.w3.org/2000/svg" viewBox="0 0 566.93 566.93"><defs><style>.cls-1,.cls-10,.cls-11,.cls-12,.cls-13,.cls-14,.cls-15,.cls-16,.cls-17,.cls-2,.cls-3,.cls-4,.cls-5,.cls-6,.cls-7,.cls-8,.cls-9{fill:none;stroke-width:3px;}.cls-1,.cls-2,.cls-3{stroke:#e52513;}.cls-1,.cls-10,.cls-11,.cls-12,.cls-13,.cls-14,.cls-15,.cls-16,.cls-17,.cls-2,.cls-3,.cls-35,.cls-4,.cls-5,.cls-6,.cls-7,.cls-8,.cls-9{stroke-miterlimit:10;}.cls-2{stroke-dasharray:6 6;}.cls-3{stroke-dasharray:6.11 6.11;}.cls-35,.cls-4,.cls-5,.cls-6{stroke:#1d1d1b;}.cls-5{stroke-dasharray:5.72 5.72;}.cls-6{stroke-dasharray:6.26 6.26;}.cls-7{stroke:#009640;}.cls-8{stroke:#1d71b8;}.cls-9{stroke:#f9b233;}.cls-10,.cls-11,.cls-12,.cls-13{stroke:#662483;}.cls-11{stroke-dasharray:6 6;}.cls-12{stroke-dasharray:6.04 6.04;}.cls-13{stroke-dasharray:5.55 5.55;}.cls-14,.cls-15,.cls-16,.cls-17{stroke:#706f6f;}.cls-15{stroke-dasharray:6.22 6.22;}.cls-16{stroke-dasharray:6.03 6.03;}.cls-17{stroke-dasharray:3.68 3.68;}.cls-18{font-size:21px;}.cls-18,.cls-19,.cls-20,.cls-21,.cls-24,.cls-26,.cls-28,.cls-29,.cls-33,.cls-35{fill:#1d1d1b;}.cls-18,.cls-19{font-family:MyriadPro-Bold, Myriad Pro;}.cls-18,.cls-19,.cls-21,.cls-23{font-weight:700;}.cls-19,.cls-21{font-size:16px;}.cls-21{font-family:MyriadPro-BoldIt, Myriad Pro;font-style:italic;letter-spacing:0.15em;}.cls-22{fill:#10587e;}.cls-23{font-size:11px;fill:#fff;font-family:PTMono-Bold, PT Mono;letter-spacing:0.15em;}.cls-24,.cls-26,.cls-28,.cls-29{font-size:15px;}.cls-24,.cls-26,.cls-28,.cls-29,.cls-33{font-family:MyriadPro-Regular, Myriad Pro;}.cls-24{letter-spacing:0.12em;}.cls-25{letter-spacing:0.1em;}.cls-26{letter-spacing:0.1em;}.cls-27,.cls-28{letter-spacing:0.1em;}.cls-30{letter-spacing:-0.01em;}.cls-31{letter-spacing:0em;}.cls-32{letter-spacing:-0.01em;}.cls-33{font-size:12px;letter-spacing:0.1em;}.cls-34{letter-spacing:0.08em;}.cls-35{stroke-width:2.5px;}.cls-36{letter-spacing:0.09em;}.cls-37{letter-spacing:0.1em;}</style></defs><title>Wemos_D1_Mini</title><g id="_" data-name="+"><polyline class="cls-1" points="432.01 414.73 432.01 441.3 25.71 441.3 25.71 331.92 46.66 331.92"/><polyline class="cls-1" points="413.11 144.13 373.93 144.13 373.93 331.92 303.92 331.92"/><line class="cls-1" x1="457.59" y1="502.29" x2="454.59" y2="502.29"/><line class="cls-2" x1="448.59" y1="502.29" x2="31.71" y2="502.29"/><polyline class="cls-1" points="28.71 502.29 25.71 502.29 25.71 499.29"/><line class="cls-3" x1="25.71" y1="493.18" x2="25.71" y2="447.35"/><line class="cls-1" x1="25.71" y1="444.3" x2="25.71" y2="441.3"/></g><g id="_-" data-name="-"><polyline class="cls-4" points="466.25 415.59 466.25 454.51 354.39 454.51 354.39 310.56 303.92 310.56"/><polyline class="cls-4" points="413.11 92.44 354.39 92.44 354.39 310.56"/><line class="cls-4" x1="457.59" y1="516.85" x2="454.59" y2="516.85"/><line class="cls-5" x1="448.87" y1="516.85" x2="360.25" y2="516.85"/><polyline class="cls-4" points="357.39 516.85 354.39 516.85 354.39 513.85"/><line class="cls-6" x1="354.39" y1="507.59" x2="354.39" y2="460.64"/><line class="cls-4" x1="354.39" y1="457.51" x2="354.39" y2="454.51"/></g><g id="TXD"><polyline class="cls-7" points="413.11 39.83 322.28 39.83 322.28 226.76 303.92 226.76"/></g><g id="RXD"><polyline class="cls-8" points="413.11 64.69 337.35 64.69 337.35 247.97 303.92 247.97"/></g><g id="S"><polyline class="cls-9" points="441.98 415.59 441.98 474.63 9.62 474.63 9.62 289.89 45.32 289.89"/></g><g id="SCL"><line class="cls-10" x1="457.59" y1="531.41" x2="454.59" y2="531.41"/><line class="cls-11" x1="448.59" y1="531.41" x2="343.64" y2="531.41"/><polyline class="cls-10" points="340.64 531.41 337.64 531.41 337.64 528.41"/><line class="cls-12" x1="337.64" y1="522.37" x2="337.64" y2="295.91"/><polyline class="cls-10" points="337.64 292.89 337.64 289.89 334.64 289.89"/><line class="cls-13" x1="329.1" y1="289.89" x2="309.69" y2="289.89"/><line class="cls-10" x1="306.92" y1="289.89" x2="303.92" y2="289.89"/><line class="cls-14" x1="457.59" y1="545.97" x2="454.59" y2="545.97"/><line class="cls-15" x1="448.37" y1="545.97" x2="327.07" y2="545.97"/><polyline class="cls-14" points="323.96 545.98 320.96 545.98 320.96 542.98"/><line class="cls-16" x1="320.96" y1="536.94" x2="320.96" y2="274.61"/><polyline class="cls-14" points="320.96 271.6 320.96 268.6 317.96 268.6"/><line class="cls-17" x1="314.28" y1="268.6" x2="308.76" y2="268.6"/><line class="cls-14" x1="306.92" y1="268.6" x2="303.92" y2="268.6"/></g><g id="Symboler"><text class="cls-18" transform="translate(493.27 359.47)">DHT22</text><text class="cls-18" transform="translate(413.45 408.21)">1</text><text class="cls-18" transform="translate(474.19 408.21)">4</text><text class="cls-19" transform="translate(419.89 428.03)">+</text><text class="cls-19" transform="translate(445.27 428.03)">S</text><text class="cls-19" transform="translate(471.19 428.03)">-</text><path class="cls-20" d="M469.6,307.85h-41L423.16,318V387.7h7.51v27.89h2.5V387.7H442v27.89h2.5V387.7h9.34v27.89h2.5V387.7h8.81v27.89h2.5V387.7h7.49V318Zm-39.73,2h38.54l4.43,8.13H425.38Zm43.25,75.85h-48V320h48Z"/><text class="cls-21" transform="translate(431.6 375.19)">###</text><path class="cls-20" d="M432.35,342.07l.92-2.87H432l.24-1.44h1.54l.59-1.84H433l.24-1.44h1.57l.9-2.82h1.39l-.9,2.82h1.41l.9-2.82h1.41l-.9,2.82h1.3l-.24,1.44h-1.51l-.57,1.84h1.32L439,339.2h-1.56l-.9,2.87h-1.43l.92-2.87h-1.4l-.89,2.87Zm4.18-4.31.59-1.84h-1.39l-.58,1.84Z"/><path class="cls-20" d="M443.41,342.07l.91-2.87H443l.24-1.44h1.54l.59-1.84H444l.24-1.44h1.57l.89-2.82h1.4l-.9,2.82h1.41l.89-2.82h1.41l-.89,2.82h1.29l-.24,1.44h-1.5l-.58,1.84h1.33l-.24,1.44h-1.57l-.89,2.87h-1.43l.91-2.87h-1.39l-.9,2.87Zm4.18-4.31.59-1.84h-1.39l-.58,1.84Z"/><path class="cls-20" d="M454.47,342.07l.91-2.87h-1.32l.25-1.44h1.53l.59-1.84h-1.36l.24-1.44h1.57l.9-2.82h1.39l-.9,2.82h1.41l.9-2.82H462l-.9,2.82h1.3l-.24,1.44h-1.51l-.57,1.84h1.33l-.24,1.44h-1.57l-.9,2.87h-1.42l.91-2.87h-1.39l-.9,2.87Zm4.17-4.31.6-1.84h-1.4l-.57,1.84Z"/><path class="cls-20" d="M432.35,358.58l.92-2.87H432l.24-1.44h1.54l.59-1.84H433l.24-1.44h1.57l.9-2.82h1.39l-.9,2.82h1.41l.9-2.82h1.41L439,351h1.3l-.24,1.44h-1.51l-.57,1.84h1.32l-.24,1.44h-1.56l-.9,2.87h-1.43l.92-2.87h-1.4l-.89,2.87Zm4.18-4.31.59-1.84h-1.39l-.58,1.84Z"/><path class="cls-20" d="M443.41,358.58l.91-2.87H443l.24-1.44h1.54l.59-1.84H444l.24-1.44h1.57l.89-2.82h1.4l-.9,2.82h1.41l.89-2.82h1.41L450,351h1.29l-.24,1.44h-1.5l-.58,1.84h1.33l-.24,1.44h-1.57l-.89,2.87h-1.43l.91-2.87h-1.39l-.9,2.87Zm4.18-4.31.59-1.84h-1.39l-.58,1.84Z"/><path class="cls-20" d="M454.47,358.58l.91-2.87h-1.32l.25-1.44h1.53l.59-1.84h-1.36l.24-1.44h1.57l.9-2.82h1.39l-.9,2.82h1.41l.9-2.82H462l-.9,2.82h1.3l-.24,1.44h-1.51l-.57,1.84h1.33l-.24,1.44h-1.57l-.9,2.87h-1.42l.91-2.87h-1.39l-.9,2.87Zm4.17-4.31.6-1.84h-1.4l-.57,1.84Z"/><polyline class="cls-22" points="275.86 403.9 87.88 403.9 87.88 349.43 73.38 342.22 73.38 332.77 45.32 332.77 45.32 330.93 73.38 330.93 73.38 311.54 45.32 311.54 45.32 309.7 73.38 309.7 73.38 290.75 45.32 290.75 45.32 288.9 73.38 288.9 73.38 269.72 45.32 269.72 45.32 267.87 73.38 267.87 73.38 248.89 45.32 248.89 45.32 247.04 73.38 247.04 73.38 227.69 45.32 227.69 45.32 225.85 73.38 225.85 73.38 206.55 45.32 206.55 45.32 204.7 73.38 204.7 73.38 185.57 45.32 185.57 45.32 183.72 73.38 183.72 73.38 165.96 108.67 133.29 240.57 133.29 275.86 165.96 275.86 183.72 303.92 183.72 303.92 185.57 275.86 185.57 275.86 204.7 303.92 204.7 303.92 206.55 275.86 206.55 275.86 225.85 303.92 225.85 303.92 227.69 275.86 227.69 275.86 247.04 303.92 247.04 303.92 248.89 275.86 248.89 275.86 267.87 303.92 267.87 303.92 269.72 275.86 269.72 275.86 288.9 303.92 288.9 303.92 290.75 275.86 290.75 275.86 309.7 303.92 309.7 303.92 311.54 275.86 311.54 275.86 330.93 303.92 330.93 303.92 332.77 275.86 332.77 275.86 403.9"/><text class="cls-23" transform="translate(87.48 185.57)">RST</text><text class="cls-23" transform="translate(91.61 206.29)">A0</text><text class="cls-23" transform="translate(91.61 227.7)">D0</text><text class="cls-23" transform="translate(91.61 248.89)">D5</text><text class="cls-23" transform="translate(91.61 269.72)">D6</text><text class="cls-23" transform="translate(91.61 290.75)">D7</text><text class="cls-23" transform="translate(91.61 311.54)">D8</text><text class="cls-23" transform="translate(87.48 332.77)">3V3</text><text class="cls-23" transform="translate(245.51 185.57)">TX</text><text class="cls-23" transform="translate(245.51 206.29)">RX</text><text class="cls-23" transform="translate(245.51 227.7)">D1</text><text class="cls-23" transform="translate(245.51 248.89)">D2</text><text class="cls-23" transform="translate(245.51 269.72)">D3</text><text class="cls-23" transform="translate(245.51 290.75)">D4</text><text class="cls-23" transform="translate(249.63 311.54)">G</text><text class="cls-23" transform="translate(245.51 332.77)">5V</text><path class="cls-20" d="M432.12,18.8V218.58H407.06a3,3,0,0,1,0-6h19.1V24.8h-19.1a3,3,0,0,1,0-6Z"/><path class="cls-20" d="M432.16,21.8V215.58a2.32,2.32,0,0,1,0,.46V21.35A2.22,2.22,0,0,1,432.16,21.8Z"/><circle class="cls-20" cx="413.11" cy="39.83" r="5.26"/><circle class="cls-20" cx="413.11" cy="64.69" r="5.26"/><circle class="cls-20" cx="413.11" cy="92.44" r="5.26"/><circle class="cls-20" cx="413.11" cy="119.4" r="5.26"/><circle class="cls-20" cx="413.11" cy="144.13" r="5.26"/><circle class="cls-20" cx="413.11" cy="171.22" r="5.26"/><circle class="cls-20" cx="413.11" cy="195.82" r="5.26"/><polygon class="cls-20" points="435.14 18.8 435.14 24.8 437.62 24.8 437.62 212.58 435.14 212.58 435.14 218.58 443.62 218.58 443.62 18.8 435.14 18.8"/><text class="cls-24" transform="translate(465.4 45.66)">T<tspan class="cls-25" x="9.27" y="0">XD</tspan></text><text class="cls-26" transform="translate(465.4 69.95)">R<tspan class="cls-27" x="9.63" y="0">XD</tspan></text><text class="cls-28" transform="translate(465.4 95.46)">GND</text><text class="cls-28" transform="translate(471.25 144.13)">5V</text><text class="cls-29" transform="translate(462.98 201.08)">squa<tspan class="cls-30" x="29.88" y="0">r</tspan><tspan x="34.63" y="0">ed pin = 1</tspan></text><text class="cls-29" transform="translate(435.14 224.97) rotate(90)"><tspan class="cls-31">B</tspan><tspan x="8.19" y="0">oa</tspan><tspan class="cls-32" x="23.65" y="0">r</tspan><tspan x="28.41" y="0">d</tspan></text><text class="cls-18" transform="translate(460.68 221.45)">SDS011</text><path class="cls-20" d="M515.79,545.88c0,4-1,6.94-3,8.89s-4.84,3-8.52,3h-11v-8.09H499a18.39,18.39,0,0,0,3.59-.29,4.77,4.77,0,0,0,2.35-1.1,4.42,4.42,0,0,0,1.25-2.24,15.2,15.2,0,0,0,.37-3.72v-8.37c0-3.18.9-5.62,2.68-7.31a10.78,10.78,0,0,1,6.87-2.83V523a11.66,11.66,0,0,1-6.91-2.68q-2.64-2.31-2.64-7.16v-8.37a14,14,0,0,0-.4-3.71,4.32,4.32,0,0,0-3.6-3.35,17.45,17.45,0,0,0-3.49-.29h-5.88v-8.09h11q5.73,0,8.63,3.17c1.93,2.1,2.91,5,2.91,8.74v9.4c0,3.23.86,5.57,2.61,7s4.29,2.17,7.67,2.17v7.34c-3.33,0-5.87.69-7.64,2.06s-2.64,3.85-2.64,7.42Z"/><text class="cls-18" transform="translate(529.5 529.82)">I2C</text><text class="cls-33" transform="translate(470.96 505.81)">V<tspan class="cls-34" x="7.88" y="0">C</tspan><tspan x="15.78" y="0">C</tspan></text><line class="cls-35" x1="466.48" y1="502.29" x2="457.59" y2="502.29"/><text class="cls-33" transform="translate(467.69 520.37)">GND</text><line class="cls-35" x1="466.48" y1="516.85" x2="457.59" y2="516.85"/><text class="cls-33" transform="translate(472.79 534.94)">SCL</text><line class="cls-35" x1="466.48" y1="531.41" x2="457.59" y2="531.41"/><text class="cls-33" transform="translate(470.24 549.5)">S<tspan class="cls-36" x="7.1" y="0">D</tspan><tspan class="cls-37" x="16.12" y="0">A</tspan></text><line class="cls-35" x1="466.48" y1="545.97" x2="457.59" y2="545.97"/><text class="cls-23" transform="translate(154.82 151.28)">WEMOS<tspan x="-8.25" y="13.2">D1 MINI</tspan></text></g></svg>